# File created by Blade
# Date/Time:  Tue Jan 27 19:58:39 2015
#---------------------------------------------------------
:version 1.10
:name HOM
:units
  mass 1.0
  length 1.000000
  angle deg
:documentation
     Acclaim Skeleton File
:root
   axis xyz
   order TX TY TZ RX RY RZ
   position 0.000000 0.000000 0.000000
   orientation 0 0 0
:bonedata
   begin
      id 1
      name Spine_dum
      direction 0.000000 1.000000 0.000000
      length 6.116652
      axis 0.0 0.0 0.0 xyz
   end
   begin
      id 2
      name LeftUpLeg_dum
      direction 1.000000 0.000000 0.000000
      length 4.711765
      axis 0.0 0.0 0.0 xyz
   end
   begin
      id 3
      name RightUpLeg_dum
      direction -1.000000 0.000000 0.000000
      length 4.711765
      axis 0.0 0.0 0.0 xyz
   end
   begin
      id 4
      name Spine
      direction 0.000000 1.000000 0.000000
      length 0.000000
      axis 0.0 0.0 0.0 xyz
      dof rx ry rz
   end
   begin
      id 5
      name Spine_dum1
      direction 0.000000 1.000000 0.000000
      length 15.225563
      axis 0.0 0.0 0.0 xyz
   end
   begin
      id 6
      name Spine_dum2
      direction 0.000000 1.000000 0.000000
      length 8.977654
      axis 0.0 0.0 0.0 xyz
   end
   begin
      id 7
      name Spine_dum3
      direction 0.000000 1.000000 0.000000
      length 8.977654
      axis 0.0 0.0 0.0 xyz
   end
   begin
      id 8
      name Head
      direction 0.000000 1.000000 0.000000
      length 4.527550
      axis 0.0 0.0 0.0 xyz
      dof rx ry rz
   end
   begin
      id 9
      name LeftShoulder
      direction 1.000000 0.000000 0.000000
      length 7.110130
      axis 0.0 0.0 -90.0 xyz
      dof rx ry rz
   end
   begin
      id 10
      name LeftArm
      direction 1.000000 0.000000 0.000000
      length 10.398341
      axis 0.0 0.0 -90.0 xyz
      dof rx ry rz
   end
   begin
      id 11
      name LeftForeArm
      direction 1.000000 0.000000 0.000000
      length 8.888997
      axis 0.0 0.0 -90.0 xyz
      dof ry rz rx
   end
   begin
      id 12
      name LeftHand
      direction 0.000000 0.000000 0.000000
      length 0.000000
      axis 0.0 0.0 -90.0 xyz
      dof rx ry rz
   end
   begin
      id 13
      name LeftHand_dum1
      direction 0.000000 0.000000 0.000000
      length 0.000000
      axis 0.0 0.0 -90.0 xyz
   end
   begin
      id 14
      name LeftHand_dum2
      direction 1.000000 0.000000 0.000000
      length 3.937000
      axis 0.0 0.0 -90.0 xyz
   end
   begin
      id 15
      name LeftHandThumb1
      direction 0.000000 0.000000 1.000000
      length 3.937000
      axis 0.0 0.0 -90.0 xyz
      dof rx rz ry
   end
   begin
      id 16
      name RightShoulder
      direction -1.000000 0.000000 0.000000
      length 7.110130
      axis 0.0 0.0 90.0 xyz
      dof rx ry rz
   end
   begin
      id 17
      name RightArm
      direction -1.000000 0.000000 0.000000
      length 10.398341
      axis 0.0 0.0 90.0 xyz
      dof rx ry rz
   end
   begin
      id 18
      name RightForeArm
      direction -1.000000 0.000000 0.000000
      length 8.888997
      axis 0.0 0.0 90.0 xyz
      dof ry rz rx
   end
   begin
      id 19
      name RightHand
      direction 0.000000 0.000000 0.000000
      length 0.000000
      axis 0.0 0.0 90.0 xyz
      dof rx ry rz
   end
   begin
      id 20
      name RightHand_dum1
      direction 0.000000 0.000000 0.000000
      length 0.000000
      axis 0.0 0.0 90.0 xyz
   end
   begin
      id 21
      name RightHand_dum2
      direction -1.000000 0.000000 0.000000
      length 3.937000
      axis 0.0 0.0 90.0 xyz
   end
   begin
      id 22
      name RightHandThumb1
      direction 0.000000 0.000000 1.000000
      length 3.937000
      axis 0.0 0.0 90.0 xyz
      dof rx rz ry
   end
   begin
      id 23
      name LeftUpLeg
      direction 0.000000 -1.000000 0.000000
      length 15.510451
      axis 0.0 0.0 0.0 xyz
      dof rx ry rz
   end
   begin
      id 24
      name LeftLeg
      direction 0.000000 -1.000000 0.000000
      length 14.858061
      axis 0.0 0.0 0.0 xyz
      dof rx ry rz
   end
   begin
      id 25
      name LeftFoot
      direction 0.000000 -0.258819 0.965926
      length 5.128852
      axis 15.0 0.0 0.0 xyz
      dof rx ry rz
   end
   begin
      id 26
      name LeftToeBase
      direction 0.000000 0.000000 1.000000
      length 2.952750
      axis 0.0 0.0 0.0 xyz
      dof rx ry rz
   end
   begin
      id 27
      name RightUpLeg
      direction 0.000000 -1.000000 0.000000
      length 15.510451
      axis 0.0 0.0 0.0 xyz
      dof rx ry rz
   end
   begin
      id 28
      name RightLeg
      direction 0.000000 -1.000000 0.000000
      length 14.858061
      axis 0.0 0.0 0.0 xyz
      dof rx ry rz
   end
   begin
      id 29
      name RightFoot
      direction 0.000000 -0.258819 0.965926
      length 5.128852
      axis 15.0 0.0 0.0 xyz
      dof rx ry rz
   end
   begin
      id 30
      name RightToeBase
      direction 0.000000 0.000000 1.000000
      length 2.952750
      axis 0.0 0.0 0.0 xyz
      dof rx ry rz
   end
:hierarchy
   begin
      root Spine_dum LeftUpLeg_dum RightUpLeg_dum
      Spine_dum Spine
      LeftUpLeg_dum LeftUpLeg
      RightUpLeg_dum RightUpLeg
      Spine Spine_dum1 Spine_dum2 Spine_dum3
      Spine_dum1 Head
      Spine_dum2 LeftShoulder
      Spine_dum3 RightShoulder
      LeftShoulder LeftArm
      LeftArm LeftForeArm
      LeftForeArm LeftHand
      LeftHand LeftHand_dum1 LeftHand_dum2
      LeftHand_dum1 LeftHandThumb1
      RightShoulder RightArm
      RightArm RightForeArm
      RightForeArm RightHand
      RightHand RightHand_dum1 RightHand_dum2
      RightHand_dum1 RightHandThumb1
      LeftUpLeg LeftLeg
      LeftLeg LeftFoot
      LeftFoot LeftToeBase
      RightUpLeg RightLeg
      RightLeg RightFoot
      RightFoot RightToeBase
   end

# File created by Blade
# Date/Time:  Tue Jan 27 19:58:31 2015
# Frame Rate: 120.000 fps
#------------------------------------------------------
:FULLY-SPECIFIED
:DEGREES
1452
root 6.688714 32.855200 1.589562 -4.025267 -19.636841 -12.885355
Spine 9.791990 16.420581 8.984581
Head 8.729135 -4.602222 5.668340
LeftShoulder -16.596727 6.650643 30.719897
LeftArm -12.420459 -1.811216 -83.041912
LeftForeArm -8.765400 -0.000000 123.494419
LeftHand 11.897273 0.000000 -6.288098
LeftHandThumb1 -26.253704 0.000000 33.147579
RightShoulder -19.706888 -18.614716 -22.367555
RightArm 4.328653 -8.915605 88.351209
RightForeArm -12.191775 -0.000000 17.079810
RightHand 18.398379 -0.000000 6.587321
RightHandThumb1 -24.326973 -0.000000 -32.862282
LeftUpLeg 11.867712 10.794586 3.671825
LeftLeg -0.799190 -0.000000 0.000000
LeftFoot -19.106021 20.574100 -16.962678
LeftToeBase 21.646244 -0.000000 -0.000000
RightUpLeg -71.498934 -28.945611 11.790958
RightLeg 108.437007 -0.000000 -0.000000
RightFoot 24.174086 -29.617234 24.231047
RightToeBase 6.393363 -0.000000 -0.000000
1453
root 6.688717 32.853342 1.589756 -4.036139 -19.543752 -12.851222
Spine 9.830705 16.401751 9.005007
Head 8.700075 -4.685861 5.671253
LeftShoulder -16.587673 6.630964 30.702783
LeftArm -12.403130 -1.832167 -83.005177
LeftForeArm -8.815025 -0.000000 123.438153
LeftHand 11.959364 -0.000000 -6.258494
LeftHandThumb1 -26.253704 0.000000 33.147579
RightShoulder -19.730394 -18.639942 -22.381443
RightArm 4.286970 -8.916272 88.377424
RightForeArm -12.196015 -0.000000 16.984278
RightHand 18.411674 -0.000000 6.588689
RightHandThumb1 -24.326973 -0.000000 -32.862282
LeftUpLeg 11.857302 10.788920 3.651013
LeftLeg -0.800475 -0.000000 0.000000
LeftFoot -19.099956 20.439824 -17.006203
LeftToeBase 21.789067 -0.000000 -0.000000
RightUpLeg -71.457728 -28.896471 11.739919
RightLeg 108.440165 -0.000000 -0.000000
RightFoot 24.273794 -29.621600 24.155650
RightToeBase 6.148155 -0.000000 -0.000000
1454
root 6.689090 32.851585 1.588124 -4.041270 -19.434291 -12.812532
Spine 9.865722 16.371292 9.002987
Head 8.661520 -4.669037 5.691542
LeftShoulder -16.586171 6.579344 30.712924
LeftArm -12.414947 -1.853829 -82.990356
LeftForeArm -8.882768 -0.000000 123.384748
LeftHand 11.993334 -0.000000 -6.266854
LeftHandThumb1 -26.253704 0.000000 33.147579
RightShoulder -19.742077 -18.657315 -22.368089
RightArm 4.250789 -8.901324 88.387003
RightForeArm -12.185721 -0.000000 16.887178
RightHand 18.420661 -0.000000 6.568574
RightHandThumb1 -24.326973 -0.000000 -32.862282
LeftUpLeg 11.825070 10.772536 3.618961
LeftLeg -0.811509 -0.000000 0.000000
LeftFoot -19.027702 20.398853 -16.945322
LeftToeBase 21.702600 -0.000000 -0.000000
RightUpLeg -71.425868 -28.861195 11.676767
RightLeg 108.439015 -0.000000 -0.000000
RightFoot 24.331740 -29.604749 24.094912
RightToeBase 6.179392 -0.000000 -0.000000
1455
root 6.688712 32.849992 1.587558 -4.066033 -19.328681 -12.799974
Spine 9.937493 16.335960 9.052216
Head 8.609716 -4.700328 5.678585
LeftShoulder -16.592724 6.540347 30.708033
LeftArm -12.410519 -1.868606 -82.978177
LeftForeArm -8.936638 -0.000000 123.333315
LeftHand 12.023223 -0.000000 -6.281694
LeftHandThumb1 -26.253704 0.000000 33.147579
RightShoulder -19.737670 -18.683270 -22.379517
RightArm 4.221845 -8.880332 88.403259
RightForeArm -12.184212 -0.000000 16.799820
RightHand 18.446740 -0.000000 6.522413
RightHandThumb1 -24.326973 -0.000000 -32.862282
LeftUpLeg 11.832877 10.738421 3.611726
LeftLeg -0.834577 -0.000000 0.000000
LeftFoot -18.990539 20.357546 -16.906729
LeftToeBase 21.610151 -0.000000 -0.000000
RightUpLeg -71.353432 -28.838282 11.609910
RightLeg 108.435428 -0.000000 -0.000000
RightFoot 24.299894 -29.624120 24.105644
RightToeBase 6.350678 -0.000000 -0.000000
1456
root 6.689661 32.849053 1.588714 -4.087726 -19.222452 -12.770486
Spine 9.987877 16.305036 9.078101
Head 8.574239 -4.749445 5.688782
LeftShoulder -16.606440 6.516431 30.695996
LeftArm -12.389548 -1.867591 -82.960146
LeftForeArm -9.002186 -0.000000 123.287304
LeftHand 12.009781 -0.000000 -6.307978
LeftHandThumb1 -26.253704 0.000000 33.147579
RightShoulder -19.741297 -18.714862 -22.379976
RightArm 4.212982 -8.858181 88.409733
RightForeArm -12.180338 -0.000000 16.693895
RightHand 18.486714 0.000000 6.566723
RightHandThumb1 -24.326973 -0.000000 -32.862282
LeftUpLeg 11.826015 10.697153 3.583584
LeftLeg -0.838786 -0.000000 0.000000
LeftFoot -18.957680 20.318312 -16.871954
LeftToeBase 21.660111 -0.000000 -0.000000
RightUpLeg -71.283977 -28.814201 11.513806
RightLeg 108.425405 -0.000000 -0.000000
RightFoot 24.287614 -29.662863 24.114600
RightToeBase 6.389851 -0.000000 -0.000000
1457
root 6.690115 32.848252 1.588633 -4.105104 -19.116893 -12.752324
Spine 10.039001 16.286450 9.111207
Head 8.529812 -4.795541 5.725684
LeftShoulder -16.610003 6.492498 30.690386
LeftArm -12.374075 -1.860867 -82.957051
LeftForeArm -9.016820 -0.000000 123.258770
LeftHand 11.996339 -0.000000 -6.319897
LeftHandThumb1 -26.253704 0.000000 33.147579
RightShoulder -19.757343 -18.760196 -22.368478
RightArm 4.224070 -8.867939 88.406824
RightForeArm -12.138275 -0.000000 16.608057
RightHand 18.439073 -0.000000 6.577392
RightHandThumb1 -24.326973 -0.000000 -32.862282
LeftUpLeg 11.809057 10.655980 3.561896
LeftLeg -0.828634 -0.000000 0.000000
LeftFoot -18.922048 20.308168 -16.802462
LeftToeBase 21.644212 -0.000000 -0.000000
RightUpLeg -71.211038 -28.782631 11.421582
RightLeg 108.408465 -0.000000 -0.000000
RightFoot 24.262767 -29.698698 24.112364
RightToeBase 6.465417 -0.000000 -0.000000
1458
root 6.688552 32.848203 1.588203 -4.124888 -19.011829 -12.746232
Spine 10.093291 16.264312 9.148440
Head 8.503956 -4.807298 5.777869
LeftShoulder -16.614020 6.468624 30.700013
LeftArm -12.369115 -1.855889 -82.962057
LeftForeArm -9.061473 -0.000000 123.236472
LeftHand 11.968642 -0.000000 -6.309772
LeftHandThumb1 -26.253704 0.000000 33.147579
RightShoulder -19.775203 -18.768700 -22.362051
RightArm 4.217815 -8.872702 88.404882
RightForeArm -12.134443 -0.000000 16.510045
RightHand 18.424347 -0.000000 6.604254
RightHandThumb1 -24.326973 -0.000000 -32.862282
LeftUpLeg 11.806113 10.606235 3.553488
LeftLeg -0.838618 -0.000000 0.000000
LeftFoot -18.862837 20.345562 -16.694079
LeftToeBase 21.520201 -0.000000 -0.000000
RightUpLeg -71.121721 -28.749501 11.332371
RightLeg 108.387443 -0.000000 -0.000000
RightFoot 24.207952 -29.715858 24.118520
RightToeBase 6.643335 -0.000000 -0.000000
